<svg xmlns="http://www.w3.org/2000/svg" style="vertical-align:-.186ex" width="9.176ex" height="1.692ex" focusable="false" role="img" viewBox="0 -666 4056 748"><style>*{fill:#1e90ff}@media (prefers-color-scheme:dark){*{fill:#1e90ff}}</style><g fill="currentColor" stroke="currentColor" stroke-width="0"><g data-mml-node="math"><g data-mml-node="mn"><path d="M213 578L200 573Q186 568 160 563T102 556H83V602H102Q149 604 189 617T245 641T273 663Q275 666 285 666Q294 666 302 660V361L303 61Q310 54 315 52T339 48T401 46H427V0H416Q395 3 257 3Q121 3 100 0H88V46H114Q136 46 152 46T177 47T193 50T201 52T207 57T213 61V578Z" data-c="31" transform="scale(1,-1)"/></g><g data-mml-node="mo"><path d="M56 237T56 250T70 270H369V420L370 570Q380 583 389 583Q402 583 409 568V270H707Q722 262 722 250T707 230H409V-68Q401 -82 391 -82H389H387Q375 -82 369 -68V230H70Q56 237 56 250Z" data-c="2B" transform="scale(1,-1) translate(722.2,0)"/></g><g data-mml-node="mn"><path d="M213 578L200 573Q186 568 160 563T102 556H83V602H102Q149 604 189 617T245 641T273 663Q275 666 285 666Q294 666 302 660V361L303 61Q310 54 315 52T339 48T401 46H427V0H416Q395 3 257 3Q121 3 100 0H88V46H114Q136 46 152 46T177 47T193 50T201 52T207 57T213 61V578Z" data-c="31" transform="scale(1,-1) translate(1722.4,0)"/></g><g data-mml-node="mo"><path d="M56 347Q56 360 70 367H707Q722 359 722 347Q722 336 708 328L390 327H72Q56 332 56 347ZM56 153Q56 168 72 173H708Q722 163 722 153Q722 140 707 133H70Q56 140 56 153Z" data-c="3D" transform="scale(1,-1) translate(2500.2,0)"/></g><g data-mml-node="mn"><path d="M109 429Q82 429 66 447T50 491Q50 562 103 614T235 666Q326 666 387 610T449 465Q449 422 429 383T381 315T301 241Q265 210 201 149L142 93L218 92Q375 92 385 97Q392 99 409 186V189H449V186Q448 183 436 95T421 3V0H50V19V31Q50 38 56 46T86 81Q115 113 136 137Q145 147 170 174T204 211T233 244T261 278T284 308T305 340T320 369T333 401T340 431T343 464Q343 527 309 573T212 619Q179 619 154 602T119 569T109 550Q109 549 114 549Q132 549 151 535T170 489Q170 464 154 447T109 429Z" data-c="32" transform="scale(1,-1) translate(3556,0)"/></g></g></g></svg>